<svg xmlns="http://www.w3.org/2000/svg" viewBox="0 0 607.6 750.19">
    <defs>
        <style>
            .cls-1 {
                fill: #f6fbf5;
            }
            .cls-2 {
                fill: #f5fcf5;
            }
            .cls-3 {
                fill: #63a5e3;
            }
            .cls-4 {
                fill: #1c2428;
            }
            .cls-5 {
                fill: #1d2728;
            }
            .cls-6 {
                fill: #eefaf6;
            }
            .cls-7 {
                fill: #90cee8;
            }
            .cls-8 {
                fill: #effbf6;
            }
            .cls-9 {
                fill: #0d212b;
            }
            .cls-10 {
                fill: #274d64;
            }
            .cls-11 {
                fill: #131d1b;
            }
            .cls-12 {
                fill: #08242e;
            }
            .cls-13 {
                fill: #12242b;
            }
            .cls-14 {
                fill: #181e25;
            }
            .cls-15 {
                fill: #11222b;
            }
            .cls-16 {
                fill: #263032;
            }
            .cls-17 {
                fill: #1b2a31;
            }
            .cls-18 {
                fill: #233742;
            }
            .cls-19 {
                fill: #152d3c;
            }
            .cls-20 {
                fill: #1b2930;
            }
            .cls-21 {
                fill: #1f2927;
            }
            .cls-22 {
                fill: #1a313b;
            }
            .cls-23 {
                fill: #1a3037;
            }
            .cls-24 {
                fill: #253338;
            }
            .cls-25 {
                fill: #27353d;
            }
            .cls-26 {
                fill: #1c3140;
            }
            .cls-27 {
                fill: #233945;
            }
            .cls-28 {
                fill: #3d5463;
            }
            .cls-29 {
                fill: #2f3a39;
            }
            .cls-30 {
                fill: #132633;
            }
            .cls-31 {
                fill: #2b3234;
            }
            .cls-32 {
                fill: #2b425a;
            }
            .cls-33 {
                fill: #2f3d43;
            }
            .cls-34 {
                fill: #4c5554;
            }
            .cls-35 {
                fill: #243a4d;
            }
            .cls-36 {
                fill: #122129;
            }
            .cls-37 {
                fill: #52676c;
            }
            .cls-38 {
                fill: #294f61;
            }
            .cls-39 {
                fill: #535d69;
            }
            .cls-40 {
                fill: #5ea8f1;
            }
            .cls-41 {
                fill: #101c21;
            }
            .cls-42 {
                fill: #5ea8f0;
            }
            .cls-43 {
                fill: #0a253a;
            }
            .cls-44 {
                fill: #8fcde7;
            }
            .cls-45 {
                fill: #111b1d;
            }
            .cls-46 {
                fill: #90cce7;
            }
            .cls-47 {
                fill: #91cce1;
            }
            .cls-48 {
                fill: #211d1b;
            }
            .cls-49 {
                fill: #75a3ae;
            }
            .cls-50 {
                fill: #17221f;
            }
            .cls-51 {
                fill: #9dc7d1;
            }
            .cls-52 {
                fill: #504a44;
            }
            .cls-53 {
                fill: #406473;
            }
            .cls-54 {
                fill: #3d3d35;
            }
            .cls-55 {
                fill: #7ea3ab;
            }
            .cls-56 {
                fill: #44504c;
            }
            .cls-57 {
                fill: #58625c;
            }
            .cls-58 {
                fill: #162527;
            }
            .cls-59 {
                fill: #242d29;
            }
            .cls-60 {
                fill: #2c4346;
            }
            .cls-61 {
                fill: #263642;
            }
            .cls-62 {
                fill: #8ecbe7;
            }
            .cls-63 {
                fill: #f6f0e6;
            }
            .cls-64 {
                fill: #f5f1e5;
            }
            .cls-65 {
                fill: #5fa8f2;
            }
            .cls-66 {
                fill: #92cee5;
            }
            .cls-67 {
                fill: #0f212b;
            }
            .cls-68 {
                fill: #1b1d17;
            }
            .cls-69 {
                fill: #60a2e2;
            }
            .cls-70 {
                fill: #dfafa9;
            }
            .cls-71 {
                fill: #93becd;
            }
            .cls-72 {
                fill: #d8afa5;
            }
            .cls-73 {
                fill: #27201b;
            }
            .cls-74 {
                fill: #f0ebe5;
            }
            .cls-75 {
                fill: #9cbfc8;
            }
            .cls-76 {
                fill: #7798a0;
            }
            .cls-77 {
                fill: #eff5ef;
            }
            .cls-78 {
                fill: #f3c6bb;
            }
            .cls-79 {
                fill: #91cee5;
            }
            .cls-80 {
                fill: #282b23;
            }
            .cls-81 {
                fill: #94cde5;
            }
            .cls-82 {
                fill: #183a49;
            }
            .cls-83 {
                fill: #103a49;
            }
            .cls-84 {
                fill: #284c64;
            }
            .cls-85 {
                fill: #f5f2e5;
            }
            .cls-86 {
                fill: #5fa8ee;
            }
            .cls-87 {
                fill: #65a4df;
            }
            .cls-88 {
                fill: #e4a9a2;
            }
            .cls-89 {
                fill: #66a2e2;
            }
            .cls-90 {
                fill: #d9b6ad;
            }
            .cls-91 {
                fill: #0a3052;
            }
            .cls-92 {
                fill: #0b3456;
            }
            .cls-93 {
                fill: #eefbf6;
            }
            .cls-94 {
                fill: #90cde7;
            }
            .cls-95 {
                fill: #08284a;
            }
            .cls-96 {
                fill: #0a2237;
            }
            .cls-97 {
                fill: #274b65;
            }
            .cls-98 {
                fill: #1d3141;
            }
            .cls-99 {
                fill: #e4aaa5;
            }
            .cls-100 {
                fill: #e4aca8;
            }
            .cls-101 {
                fill: #6aa4d7;
            }
            .cls-102 {
                fill: #f2ecdf;
            }
            .cls-103 {
                fill: #e1acaa;
            }
            .cls-104 {
                fill: #d8aca8;
            }
            .cls-105 {
                fill: #d8ada8;
            }
            .cls-106 {
                fill: #faf1e1;
            }
            .cls-107 {
                fill: #e4fafb;
            }
            .cls-108 {
                fill: #7da2ab;
            }
            .cls-109 {
                fill: #69acc6;
            }
            .cls-110 {
                fill: #284555;
            }
            .cls-111 {
                fill: #f4c7ba;
            }
            .cls-112 {
                fill: #a07c79;
            }
            .cls-113 {
                fill: #91cce6;
            }
            .cls-114 {
                fill: #dbaaa4;
            }
            .cls-115 {
                fill: #353e43;
            }
            .cls-116 {
                fill: #a99d9f;
            }
            .cls-117 {
                fill: #7b2c34;
            }
            .cls-118 {
                fill: #67a7e7;
            }
            .cls-119 {
                fill: #2d5f86;
            }
            .cls-120 {
                fill: #dff8f9;
            }
            .cls-121 {
                fill: #c9effa;
            }
            .cls-122 {
                fill: #dd6878;
            }
            .cls-123 {
                fill: #72a4ca;
            }
        </style>
    </defs>
    <g id="图层_2" data-name="图层 2">
        <g id="图层_1-2" data-name="图层 1"><path class="cls-1" d="M364.38,750.19H256.28c-4.81-7.7-6.61-15.82-3.47-24.64,4.62-5.6,11.12-5.24,17.44-5.45,13.36-.44,14.74-1.67,16.77-15.32.92-6.25,2.17-12.43,2.47-18.79.23-4.84,1.26-9.63,4.9-13.34,6.14-3.11,12.95-3.87,19.55-4.13a205.48,205.48,0,0,0,32.1-3.28c6.88,3,6.13,9.84,6.88,15.34,3,22,9.31,43.4,12.2,65.43A5.24,5.24,0,0,1,364.38,750.19Z"/><path class="cls-2" d="M236,750.19H154.94c-1.77-9,3.51-16.43,5.37-24.61,2.79-12.31,7.26-24.2,10.51-36.43,2.71-5.85,1-13.92,8.63-17.29,6.4-1.06,12.36.35,18.08,3.17a5.25,5.25,0,0,1,1.37,3.4c-1.23,9.18-5.49,17.79-4.86,27.37.73,11.16,5.53,15.71,16.62,16.65,9,.76,18.71-3.26,26.82,3.81C240,734.43,241.08,742.5,236,750.19Z"/><path class="cls-3" d="M236,750.19l.33-24.51c5.79-4.8,11.65-4.52,17.58-.27q1.19,12.39,2.36,24.78Z"/><path class="cls-4" d="M364.38,750.19q-7.87-39.36-15.78-78.73a32.56,32.56,0,0,0-1.88-5c-2.23-1.66-2.2-3.73-1.09-6,2.71-2,4.07-.16,5.33,1.91,7.92,28.88,11.11,58.72,17.92,87.82Z"/><path class="cls-5" d="M172.94,689.36c-4.67,20.67-11.25,40.78-18,60.83h-4.51c6.82-21.89,11-44.59,20.07-65.79C172.51,685.46,171.22,688.15,172.94,689.36Z"/><path class="cls-6" d="M98.74,198.18c1.19-.89,3.38-1.73,3.43-2.69.65-12.73,9.62-19.74,19-25.09,9-5.12,15.62-12.22,22.36-19.53,12.2-3.24,21-12.67,32.22-17.72,5.17-2.54,10.46-4.72,16.24-5.44,14.94-3.65,29.18-4.23,44.66.68s31.73.68,46.78-5.85c4.43-1.93,8.59-4.5,13.36-5.62,15.24-2.49,29.65,2.1,44,5.79a205.72,205.72,0,0,0,24,5.12,120.54,120.54,0,0,1,48.3,27.87c21,15.24,29.78,38,37.63,61.28,2.6,7.72-3.35,13.3-5.31,19.88-2.42,5.13-1,11.28-4.23,16.22,1.89-.53,1.54-5.56,5.18-2.59,3.19,5.79.92,11.23-1,16.69-2.48,3.77-3.58,8.22-5.93,12.06a3.22,3.22,0,0,1-3.17.5c-2.13-2-2.83-4.76-3.91-7.32-10.33-32.18-22.44-63.48-43.95-90.2-2.33-2.86-4.4-5.93-6.89-8.66-1-1.16-1.41,1.14-.52-.06,3.15,2.63,5.07,6.26,7.63,9.39,22.72,28.83,35.66,62.2,45.31,97.14a8.19,8.19,0,0,1-1.9,5.05c-28.72,17.44-59.21,19.65-90.91,10.24-5.73-1.7-11.41-3.71-17-5.82-8.62-3.28-11.66-11-14.74-18.65-1.81-4.5-4.06-8.81-6-13.2-2.84-4.29-4.21-1-5.29,1.25-2.44,5-3.21,10.83-7,15.27a73.65,73.65,0,0,1-26.25,19.51c-3.46,1.5-7.48,4.36-10.36-1.14a26.23,26.23,0,0,1-1.07-6.59c-1.71-16.14-10.47-24.44-25.22-23.93-14.25.5-24.6,11.49-24.82,26.4-.05,3.25,1.57,6.7-1.17,9.64-9.51,1.88-17.6-1.95-25.57-6.34-5.27-8.65-7.64-18.22-8.82-28.15a32.08,32.08,0,0,0-1.6-11.46c-1-2.81-2.24-1.77-3.41,0-5.73,9.77-8.88,20.7-14.28,30.58-2,3.62-3.75,7.38-7.3,9.84C109.24,306.17,82,295.32,70,264.2,70,247.73,80.39,235,86,220.5A81.34,81.34,0,0,1,98.74,198.18Z"/><path class="cls-1" d="M443.11,268.23c.28-6.37,3.79-12.42,1.93-19-1.86-2-1.72-4.54-1.69-7a61.75,61.75,0,0,1,94.5-32.69l4.57,2.29c9.42,10.49,18.55,21.15,21.46,35.57,7.24,21.23,6.76,41.35-8.36,59.41-11.91,11.62-26.7,16.52-42.81,18.36-4.24,0-8.47,0-12.71,0-29.39-1.5-50-17.38-57.41-44.11C441.38,276.7,440.14,272.39,443.11,268.23Z"/><path class="cls-7" d="M71.59,263.57c17.68,31.24,32.45,37,69.33,27.18,2.46,8.58-4.8,14.19-6.66,21.49-1.36,5.33-4.57,10.07-6.7,15.2-2,4.11-2.77,8.95-6.85,11.86-9.25,4.4-19.56,3.48-29.2,5.89-7.09.48-13.93,1.48-18,8.48-4.23,11.59-4,23.56-2.93,35.55a52.13,52.13,0,0,1-.22,11.17c-.91,7.26-4.8,8.35-10.8,5.87-12.89,2.47-23.48,11.33-36.64,13.1-3.23.44-7,3-9.27-.31-2.78-4.15,2-6.33,4-9.16,6.45-9.09,13.84-17.54,18.77-27.66,7.55-16.51,11.59-34.07,16-51.52-.53-1.67-2,.48-.62-.09.56-.23.75.07.61.91-.6,3.45.38,7.85-5.07,8.34-1-8.23,3.32-14.14,8.5-19.69-3.22-6.42.34-12.38,1.26-18.52,1.49-10,4.62-19.63,7.8-29.17C66,269.12,65.93,263.91,71.59,263.57Z"/><path class="cls-8" d="M499,322.36l14.35-.06c.5,2.7,2.7,2.4,4.38,2.06,15.17-3,30.05-6.68,39.58-20.58,7.76-9.32,11.24-20,11.25-32.13,0-5.8-1.61-12.11,3.1-17.15,2.66,2.12,6.77,1.39,8.88,4.57,11.18,3.91,17.64,12.37,20.17,23.33,4.78,20.76,6.7,41.8,2.87,63-1.54,8.59,2.08,17.86-3.35,26-8,3.1-13.7-2.08-19.09-6.12-6.17-4.63-12.07-5.79-19.69-4.79-27.55,3.61-49.66-8.62-58.76-31.57-.93-.87,3.73-2.3-.31-2.94C500.46,325.66,499.06,324.6,499,322.36Z"/><path class="cls-9" d="M351,662.37l-3.64-2.29c-5.28-1.4-8-5.75-9.92-10.08-12-26.83-17.63-54.1-5.38-82.66,5.13-12,2.1-25.18,4.53-37.68,1.06-5.48-4.12-4-7.17-2.93C315.51,531.44,301,533.54,287,538a10.54,10.54,0,0,1-3.63,0c-7-3.19-6.06-6.59-.28-10.13C295.35,523,308.41,521,321,517.26c11.7-3.5,22.48-8.2,30.64-17.62,1.9,2.95,5.86-1.75,7.57,2,.91,13.86-3.61,27.06-3.74,40.78,1.48-24.56,9.45-48.41,6.76-73.41,1.09-3.58,1.41-7.54,4.89-9.94,7.87,11.49,9.2,24.59,6.77,37.54-2.8,15-4.39,30.07-6.18,45.14-.89,7.43,2.25,12.29,9.39,14.46,27.66,8.41,54,4,79.13-9,7.31-3.77,7.16-10.7,5.16-17.7-4.91-19.25-10.35-38.34-16.74-57.16-1.3-3.84-3.68-7.49-2.42-11.87,4.82.87,3.24-4.83,6.11-6,7.5,6.67,8.24,16.49,10.56,25.14,5.88,22,15.69,43.09,15.52,66.5,0,2.67,2.18,4.72,3.3,7.08a4.66,4.66,0,0,1-.72,5c-2.08-.64-4.12-1.44-6.24-1.91-5.85-1.3-7.88-.24-6.44,6.8,4.08,20,8,40.06,8.86,60.48.52,12.57.14,25.28-3.82,37.5-2.61,8-7.72,13.7-16.38,14.64-10.54,1.14-19.2,8.35-29.89,8.68-1.4-2-2.45-3.76-5.81-2.56a17.78,17.78,0,0,1-12,0,12.56,12.56,0,0,1-2.87-1.7c-11.45-13-14.07-28.92-13.76-45.17.36-18.64-3.17-36.51-7.19-54.45-1.83-8.16-5.92-9.53-12.9-5.74-6.11,3.32-11.17,7.68-14.35,13.84-11.95,23.18-15.25,46.15,2.11,68.46a5.1,5.1,0,0,1-.91,5.08Z"/><path class="cls-10" d="M434.67,126.16c11.08-10.42,24.63-14.32,39.41-15,5.06-.24,9.67.32,11.65,6,5.93,23.2.29,46-2.74,68.79-.42,3.13-1.42,7.83-5.4,7.38-3.34-.37-4.49-4.73-4.83-8.16-1.19-12.27-2.64-24.54-2.53-35.69.18,13.46.85,28.08,3.61,42.56,1.76,9.24-10.79,24.57-19.74,24.38-3.66-.08-5.25-3-6.15-5.74-6.73-20.54-15.49-40.45-18.34-62.2C428.52,140.12,432.82,133.54,434.67,126.16Z"/><path class="cls-11" d="M60.24,403c3.29-3.2,3.53,2.6,6.39,1.9,3.66-17.58-3.91-36.41,4.75-53.66,2.22-.66,3.33.68,4.24,2.36,1.42,12.19-1.15,24.32,1.08,36.76,8.06,44.82,48,68.59,90.89,53.07a108.91,108.91,0,0,0,23-11.62c10.71-7.05,17-16.5,17.9-29.56a81.83,81.83,0,0,1,3.36-18.79c2-6.51,6.15-11.22,13.36-12s15.43-1.12,19.31,5.9c7.73,14,15.6,28,21.49,42.89-8.74.27-17.4,0-26.13,2.31-4,1-7.31-4.56-10.77-7.39-4.2-3.45-8.63-4.09-11.11,1.44-9.42,21.05-28,30.31-47.78,38.32-27,7.91-41.8,7-67-4.35-1.52,2.44.49,5-.25,7.46-.51,2.45-1.55,4.39-4.33,4.75-8.47-4.68-9.34-13.92-12.59-21.6s-6.13-15-12.9-21.24c-4.12,5.36-4.6,10.92-5.08,16.44A48.25,48.25,0,0,0,68,446.48c3.81,29.9-7.33,57.65-12.29,86.29-.57,3.27-1.54,6.65-5,8.39-4.53-2.59-2.68-6.29-1.73-9.83.71-10.7.41-22,4.77-31.64,8.54-18.84,5.68-38.56,6.91-57.95.6-9.61-.3-19.31-.52-29C58,409.49,57.82,406.23,60.24,403Z"/><path class="cls-12" d="M477,558.32v-3.81c4-2.9,5.14-6.59,4.7-11.66-3.14-35.46-10.27-70.64-10.73-106.16-.26-19.66-4.88-33.85-22.32-43.07a7.51,7.51,0,0,1,.1-5.08c4-4.11,7.61-.52,11.08.91,6.19,2.54,11.87,6.21,19.2,8.88-15.93-20.64-24.44-44.23-36-66.22a24.31,24.31,0,0,1-2.49-13.1c.45-2.76.82-5.59,4.19-6.44,7.32,5.2,7.49,14.26,11.36,21.33,6.45,11.78,11.58,24.21,16.41,34.92.37-9.66,1.25-21.07,2.4-32.38.78-7.63-1.49-11.7-7.92-15.27a59.29,59.29,0,0,1-23.93-24.55c-2.53-5.5-5.72-10.82-4.49-17.29.53-4.09-1.31-9.16,4.53-11.1.93,29.4,23.31,51,55.93,54.13.78,2.4,6,.3,4.79,4.7-15.93.76-17.65,11.59-18.2,24.34-.73,16.79-4.25,33.63,7.87,48.46,3.85,4.71,3.36,10.82-4,11.95-7.64,1.17-7.27,5.77-7.22,11.27A435,435,0,0,0,507,563.21c1.47,4.2,3.88,8.21,3.12,13-.67,1.92-1.58,3.5-4.05,2.93-5.42-4.83-4.61-12.24-7.5-18.12-2.39-4.87-2.1-4.6-6.81-.43C486.25,565.42,481.87,559.48,477,558.32Z"/><path class="cls-13" d="M434.67,126.16c3.49.82,4.71,2.8,1.78,5.32-5.41,4.65-5.21,10.85-4.26,16.63,3.76,22.87,12.93,44.13,19.29,65.28,3.08,1.83,3.46-.37,4.51-1,17.58-11.07,17.37-11,13.34-31.91-2.82-14.57-1.27-29.19-1.2-43.78l3.23-.16,5,55.33c6.11-23.9,12.87-47.36,7.9-71.87-.17-.81.92-1.88,1.43-2.82,10,16.75,2.48,34.33,2.47,51.56,0,3.83-4.67,8.73,2.07,11.39a2.24,2.24,0,0,1,2.9,0c-2.21,11.45,3.47,13.09,13.75,13.95,13.2,1.1,23.63-4.61,34.86-8.95,3.67-1.42,6.7-4.93,11.27-3.32,2.28,2.71-.07,3.83-1.76,5.17-.46,2.31-2.56,2.26-4.16,2.84-9.7,3.5-14.15,9.42-9.28,19.75-11-1.64-20.76-7.38-32.26-7.72-29.3-.85-51.64,13.95-60.49,41.26-5.28-.86-2.49-4.17-2.06-6.77,11.08-23.14-3.72-40.74-13.46-58.94-4.12-7.7-11.71-13.55-17.72-20.23.41-3.46,2.38-3,4.61-1.82,1.36,1.18,3.24,2.11,4,3.6,1.48,3.06,4.34,5.09,6.8,4.11,3.72-1.49,1.07-5,.83-7.84C427.2,144.85,424.65,134,434.67,126.16Z"/><path class="cls-14" d="M49,531.33c.59,3.13-.8,6.71,2.09,9.33,2.88,2.31,2.72,5.45,2.41,8.64C50.81,564,54,569.94,68.88,575.71c20.46,7.93,41.7,8.25,63.16,5.48,3.23.27,5.68,1.64,6.82,4.85.69,2.13.92,4.36,1.43,6.53.67,2.68,2.69,4.67,3.78,7.14,8.74,21.3,17.4,42.62,22.18,65.28-.55,2.5-1.6,4.56-4.43,5-6.26-1.61-6.93-7.52-8.61-12.16-5.72-15.7-11.42-31.43-14.86-45.63-1.21-3.44-2.91-1.29-1.68-2.15.44-.3.85-.13,1,.56,1.13,7.19,6.44,15-3,20.64-3.84-1.86-4.66-5.4-5.12-9.14-.22-7.09-.24-14.21-.06-21.32.14-5.66-1.7-8-7.77-7.81-15.67.45-31.43,1.5-46.81-3.21-4.34-1.33-6.42.68-5.43,5.33,2,20.1,4.74,40.11,9.3,59.77,6.55,28.28,18.68,34.87,46.56,26.1,4.28-1.35,8.36-3.25,12.62-4.63,6.21-1.39,11.94-4.82,18.58-4.41,1.77.56,3.21,1.39,2.88,3.63-17.57,10.84-36.08,19.52-57.26,17.67-19.2-1.67-26.61-16.69-30.27-32.64-4.39-19.15-8.1-38.56-9.64-58.28-.75-9.62,1.32-19.79-9.82-26.73-5.84-3.64-7.95-12.53-7.08-20.13C46.21,547.42,46,539.11,49,531.33Z"/><path class="cls-15" d="M598.53,371.6c5.38-30.26,6.26-60.53-.47-90.71-2.22-10-10.09-15.79-17.48-21.82,8.56-.22,20.69,10,22.73,20.11a223.68,223.68,0,0,1,3.34,64.56c-6.14,69.86-22.41,138.26-28.93,208-6.15-2.08-3.92-7.63-4.93-11.85,1.16-39.1,8.66-77.4,14.93-115.85,1.93-11.83,4.16-23.62,5.92-35.49C594.5,382.78,594.19,376.47,598.53,371.6Z"/><path class="cls-16" d="M211.27,45.19c1.66-10.68,12-13.14,18.91-16.64C255.64,15.72,281.79,4,310.69.76c2.88-.33,6.65-2.15,7.78,1.39.76,2.36-3.2,4.3-4.55,6.06a86.86,86.86,0,0,1-19.56,18.73c-1.35,1.36-2.85,1.29-4.42.42-1-8.57,8-10.76,11.24-17.74-27.12,7.65-52.82,17-76.59,31.27-3.74,2.24-7,5.8-12,5.15C212.16,45.76,211.71,45.48,211.27,45.19Z"/><path class="cls-17" d="M71.59,263.57c-9.13,17.79-11.3,37.52-15.76,56.61-6.8-2.05-3.76-7.67-3-11.1,5.67-26.82,13.73-52.89,25.73-77.64,3.67-7.58,7.16-15.25,10.3-23.06,2-4.91,4.7-8.65,9.91-10.2-1.7,10.15-8.59,17.93-12.44,27.1C81,237.9,74,249.86,71.59,263.57Z"/><path class="cls-18" d="M60.24,403c0,3.25-.07,6.5-.11,9.76-8.63-2.08-15.93,2.26-23.48,5.05A97.73,97.73,0,0,1,0,424.14c14.83-12.54,24.75-28.3,35.05-43.76,2.44-.58,3.61.18,3,2.84C32.4,396.48,23.71,407.63,13,418.44,31.1,418.05,44.42,406.71,60.24,403Z"/><path class="cls-19" d="M204.48,119.35a76.62,76.62,0,0,1,23.23-8.29c-9.52-5.17-16.79-8.56-23.44-12.9-6-3.92-13.47-6.66-15.71-14.75A4.92,4.92,0,0,1,191.34,82a8.44,8.44,0,0,1,3.1.66c10.83,8,22.31,14.92,35.19,19.23,8.1,2.61,14.8,9.8,24.43,7.36a6.35,6.35,0,0,1,4.76.71,5.69,5.69,0,0,1,1.35,3.1c-.24,5.6-4.55,7.55-8.47,6.27-13.84-4.54-26.33.32-39.09,4.15a9.88,9.88,0,0,1-5.52-.07C205.34,122.6,204,121.6,204.48,119.35Z"/><path class="cls-20" d="M257.92,110.32l-3.93,0c-6.8-4.14-1.31-10.39-2.67-15.46,1.59-9,5.07-17.46,8.59-25.87,5.42-12.67,13-24,21.1-35.13,2.35-3.24,5-6.55,9.6-6.87l3.75-.08c-4.53,12.15-14,21.15-20.5,32.07-9,15.13-15.74,30.83-15.21,48.87A1.48,1.48,0,0,1,257.92,110.32Z"/><path class="cls-21" d="M571.7,254.5c-1.22,9.94,1.24,20.06-1.66,29.95-2.42,8.26-5.12,16.25-12.24,21.82-1.59,1.34-3.16,1.46-4.71-.06,14.59-18.27,14.46-38.79,9.18-60.1-1.09-2.37,0-3,2.19-2.78Z"/><path class="cls-22" d="M281.05,108c21.3-2.56,42-.41,61.22,9.47,5.06,2.61,11.41-.79,15.26,4.57,0,2.32-1.54,3.13-3.41,3.68-11.62-.77-22.33-5.61-33.76-7.53-7.79-1.31-15.48-2.56-23.37-2.55-5.6-.27-11.54.81-15.94-4.1A3.07,3.07,0,0,1,281.05,108Z"/><path class="cls-23" d="M575.68,540c1.16,3.85-.84,8.24,2,11.79-2.3,19.9-2.76,39.36,6.11,58.39,3.74,8-3.91,5-7.74,4.78-.91-2.84.61-6.09-1.51-8.75-11.14-20-4.43-40.89-3-61.49A4.89,4.89,0,0,1,575.68,540Z"/><path class="cls-24" d="M354.49,124.37l3-2.29c18,5.07,33.78,15,50,23.73,3.62,1.95,6,6.25,8.9,9.47l-4.61,1.82c-14.1-10.5-27.5-22.18-45.19-26.55C362.81,128.09,356.39,130.7,354.49,124.37Z"/><path class="cls-25" d="M551.29,186.91c.69-1.19,1.39-2.38,2.09-3.57-2.6-8-.27-16.12-.72-24.19-.69-12.32-2.46-14.57-14.68-16.37-3.56-.52-7.56-.05-9.64-4.1,5.88-6,12.34-4,18.86-1.42,9.72,1.33,13.55,7.57,14.11,16.72a90.27,90.27,0,0,1-2.07,24.47C558.24,183.11,555.25,185.33,551.29,186.91Z"/><path class="cls-26" d="M492.09,180.3a4.17,4.17,0,0,1-1.82-.21,108.84,108.84,0,0,1,34.05-44.36,5.16,5.16,0,0,1,1.46,4.64c-8.71,12.84-18.77,24.72-27,37.88C497.42,180.33,495.07,182.13,492.09,180.3Z"/><path class="cls-27" d="M578.6,608.24c4.18,4.12-2.1,4.31-2.51,6.7-18.74.28-33.51-8.71-47.19-20.24a6.31,6.31,0,0,1,5.5-3.12C548.33,599.24,562.15,607.23,578.6,608.24Z"/><path class="cls-28" d="M38,383.22l-3-2.84a254.84,254.84,0,0,0,12.28-40.5q2.67-6.33,5.35-12.65C52.24,347.15,46.54,365.57,38,383.22Z"/><path class="cls-29" d="M191.35,83.18l-2.79.23c-8.13-5.49-3.47-12.35-1.65-18.59,3-10.37,14.2-19.06,24.36-19.63l-.1-.29c1.38,2.59-.22,4.5-1.93,5.71C198,58.6,191.36,69.05,191.35,83.18Z"/><path class="cls-30" d="M533.2,593.09l-4.3,1.61c-5.28-4.13-10.62-8.11-17.92-7.23-3.13-3.72.39-8.13-1.24-12,1.39-6.68,5.74-5,8.6-2.12C524.16,579.18,530.56,584.78,533.2,593.09Z"/><path class="cls-31" d="M564.46,243.33l-2.19,2.78c-3.93-13-14.8-22-19.85-34.32C555.26,218.47,562.84,228.82,564.46,243.33Z"/><path class="cls-32" d="M355.38,662.28,355.3,658c13.7,1.47,25.06,7.7,34.85,17.13a4,4,0,0,1-1.06,3.11C377.11,674.49,365.6,669.74,355.38,662.28Z"/><path class="cls-33" d="M204.48,119.35l2.63,2.45c-3.71,6.39-10.58,6.38-16.56,8.18l-15.2,5.87c-1.51-1.59-1.39-3.21-.08-4.85A85.07,85.07,0,0,1,204.48,119.35Z"/><path class="cls-34" d="M175.27,131c0,1.62.06,3.23.08,4.85-9.16,5.67-18.35,11.32-27.49,17-2.62,1.63-4.88,3-4.31-2C153.77,143.68,163.75,136.11,175.27,131Z"/><path class="cls-35" d="M389.09,678.23l.15-2.82c7-4.22,10.64,2.47,15.61,4.85h.08c1.62,4.55,9.23-1.58,9.51,5.34C404.63,687.81,396.16,685.43,389.09,678.23Z"/><path class="cls-36" d="M524.4,138.86c0-1.05,0-2.09-.08-3.13,8-4.55,15.73-6,22.88,1.53-6.14,1.08-12.77-2-18.53,2.22C527.05,140.61,525.5,141.26,524.4,138.86Z"/><path class="cls-14" d="M172.94,689.36c-2-1.08-2.13-3.06-2.44-5,1.39-4.57-3.2-5.55-4.94-8.24,1.14-2.35,3.68-2.95,5.49-4.47a11.55,11.55,0,0,1,4-2,6.41,6.41,0,0,1,4.43.79,2.82,2.82,0,0,1,.77,2.77C175.24,677.48,175,683.81,172.94,689.36Z"/><path class="cls-37" d="M414.44,685.61c-2.87-2.31-8.65.56-9.51-5.34,4.64-.45,9.3,1,14-1.16,7.81-3.55,3.41,3.08,4.18,5.4Z"/><path class="cls-5" d="M172.77,673.16c-1.46,3.27-4.59,2.53-7.21,3l-6.2-.56-2.62-2.23c-.34-3.74,3.27-2.89,4.95-4.28,2-1.13,2.26-3.12,2.55-5.1C169.47,664.82,170.17,669.87,172.77,673.16Z"/><path class="cls-38" d="M281.05,108c0,.68.05,1.37.09,2.06-7.36,5.23-14.81,4.9-22.34.38l-.87-.16.72-2.44C266.11,109.21,273.6,104.85,281.05,108Z"/><path class="cls-39" d="M510.64,576.66c5.13,3.44.19,7.21.34,10.81-2.61-2.22-4.54-4.84-4.93-8.36l2.71-2.74C509.51,575.63,510.15,575.68,510.64,576.66Z"/><path class="cls-40" d="M285.64,536.2c2.37-1.1,4.64-2.78,7.13-3.22,16.13-2.88,31.7-7.94,50.32-13.48-8,18.54-2.65,36.47-10,53.7-8.28,19.38-6.57,40.15,1,60.28,3.52,9.4,7.36,18.46,13.25,26.6l-.6,6.38c-16.49,8-34.48,4.55-51.73,6.84-4.79-4.28-3.31-9.73-2.81-15,3.71-17.92,4.56-36.06,3.64-54.27-.67-13.37-4.29-17.24-18-20-6-1.21-8.19-4.31-6.77-10.27.77-3.25,2.2-6.33,2.44-9.71C276.79,554.45,278.36,544.08,285.64,536.2Z"/><path class="cls-41" d="M294.84,658.5l.15,14.8c-1.68,11.42-3.49,22.82-5,34.26-1.46,10.82-6.62,16.78-18.36,16-5.89-.37-12-.43-17.69,1.82l-17.58.27c-9-.08-18-.07-27-.29-11.77-.28-17.51-5.72-18.67-17.7-1-10.71,2.77-20.36,6.86-29.92,3.45,1.22,4.45,4,4.71,7.29-.44,7.67-4.77,14.77-3.34,22.72,1.87,6.63,6.18,9.62,13.12,9.93,19.47.85,38.71-2.78,58.15-2.79,8.69,0,11.74-6.27,12.17-14.48.72-13.41.59-26.93,3-40.18.87-4.77.56-10.93,7.52-12.25C297.46,650.79,295.51,654.76,294.84,658.5Z"/><path class="cls-42" d="M180.25,673.3a4.82,4.82,0,0,0-.47-2.15c-2-9,3.11-16.4,5.76-24.27,4.47-13.28,10.06-26.18,13.83-39.7,1.83-10.44,8.28-19.08,11.28-29.09,1.51-5,5.89-7.67,10.37-9.6,6.1-2.64,6.94-6.79,5.28-12.7s-7.88-12.79,1.94-17.1c9.59-4.2,23.68-.46,28.06,6.93,4,6.79,6,14.42,8.78,21.74.66,1.71.85,3.58,1.59,5.25,3.24,7.38.82,11.18-7.16,11.52a36.88,36.88,0,0,0-8.61,1.48c-6.08,1.45-13.08.66-17.14,7-12.57,23.44-20.66,48.71-30,73.44-1.41,3.71-1.3,8.37-6.36,9.64Z"/><path class="cls-43" d="M197.36,675.74C207,649.24,215.94,622.5,228,597a69.29,69.29,0,0,1,4-6.55c1.7-1.46,3.51-3.4,5.85-2.26,1.9.92,1.74,3.27,1,5C225.73,622.94,215,653.67,203,683.92c-.42,1.06-1.81,1.11-2.95,1l-2.49-7.1C197.51,677.09,197.44,676.42,197.36,675.74Z"/><path class="cls-44" d="M443,320.32c1.3,16.25,12.39,28.4,18.16,42.8,5.55,13.84,14.06,26.37,24.17,39.56-14-2.26-24-10.24-35.3-14.85-4.83,4.77-5.32,11.08-6.23,17.29-.69,4.68-1,9.94-7.88,9.63-8.3-19.19-23-35.6-23.22-58.35-.13-12.75-14.26-24.83-30.58-28.82-8-2-16.28-3.34-24.47-2.29-13.88,1.78-23.12-3.9-28.65-16.26-3.2-7.15-10.49-13.43-5.34-22.58,15.44,3.95,30.08,10.33,46.53,11.18,22.12,1.15,41.78-6.2,61.65-13.76,8.65,2,6,10.41,8.89,15.69C443.68,306.24,441.28,313.5,443,320.32Z"/><path class="cls-45" d="M323.65,286.45c.44,13.95,9.51,23.8,16.78,34.37,2.18,3.17,7,1.6,10.64,1.65,18.64.26,37.19-.27,53,12.88,6.19,5.14,11.88,10.65,11.22,18.18-1.52,17.28,9.09,29.81,15,44.21,2.24,5.49,4.28,11.06,6.42,16.59,3.86,3,4.56,7.67,6.33,11.79,1.59,9.38,8,17.89,5.12,28.09-1.44,1.82,2,7.78-4.49,5.34-8.4-3.89-4.46-12.71-7.5-18.74a36.89,36.89,0,0,0-1.92-8.2c-5.38-18.77-11.78-37.07-23.53-53a14.86,14.86,0,0,1-3-8.36c.65-6.32,2.12-12.69-1.36-18.72-8.29-13.89-21.24-20.15-36.63-20.08-29.93.11-59.84.13-89.79,1.11-36.35,1.19-72.45,4-108.56,7.62-22.72,2.29-45.37,5.16-68,8-4.84.6-9.66,1.49-14.39-.57-3.47-2.41-2.13-4.24.71-5.89L121,337.84a14,14,0,0,1,4.75-2.68c8.06-2.67,16.66-1.88,24.81-3.9,6.79-1.53,13.82-.34,20.61-1.82,5.18-.67,6.73-3.32,5-8.35-2-5.85-3-12-4.79-17.94a28.39,28.39,0,0,1-.92-3.11c-2.79-12.41-4.95-25-8.19-37.27a8.31,8.31,0,0,1,.47-3.35c4.1-5.53,6.12-2.83,7.61,1.94.87,10.13,4.34,19.61,7.27,29.23,5.81,7,6.37,15.92,8.33,24.2s5.36,12.06,14.61,11.35c20.52-1.57,41-4.15,61.53-4.95,7.15-.28,8.93-5.55,11-11,4.65-12.13,6.54-25.56,16.21-35.4,3-1.48,3.94.89,5.11,2.8,1.75,5.28,6.05,7.07,10.42,5,5.31-2.54.33-6.26-.51-9.29-1.06-3.88-2.73-7.59-3.46-11.6.61-2.83-3.72-8.75,4.31-7,3.48,7.75,6.78,15.59,10.53,23.21C317.47,281.43,318.71,285.77,323.65,286.45Z"/><path class="cls-46" d="M290.1,275c-7.3,12.82-10.62,27.15-15.24,41-2.1,6.27-5.17,8.43-12,8.75-22.08,1-44.2,2.43-66.15,5-8.06.94-10.69-1.61-12.13-8.47-2.14-10.23-4.62-20.39-7-30.58l24.26,6.33c1.42.24,2.93.69,3.65,1.88,3.1,5.16,5.16,2.9,7.14-.84,6.21-2.37,12.92-.46,19.17-2.31a40.27,40.27,0,0,1,7.57-1.72c3.37.48,6.84-.28,10.18.66a4.62,4.62,0,0,1,1.3,2.86c.82-.45.6-1.38.92-2.06.83-1.75,1.92-3,4.06-2.74,10.91.59,17.63-7.29,25.5-12.75,3-2.07,5.54-4.79,8.3-7.21q1,.6.84,1.41C290.44,274.66,290.29,275,290.1,275Z"/><path class="cls-47" d="M258.8,110.48l22.33-.38c4.65,4.75,10.48,1.3,15.67,2.27,1.77,2.16,1.95,4.33.05,6.52-23.61,14-48.14,19.68-74.57,8.27-6-2.61-11.66-.06-17.47,1.15-4.67,1-9.26,3.3-14.26,1.67l16.56-8.18c6-1.73,12.16-3.12,18-5.25,7.55-2.74,14.81-3.37,22.6-.73C252.48,117.42,258.49,119.17,258.8,110.48Z"/><path class="cls-48" d="M164,259.13l-.13,2.5c-3.14,10.08-9.13,18.87-13,28.65-2.59,6.58-.79,8.84,6.09,8.82,5.45,0,11.36-1.54,16.11,2.83l-.15-.22c2.73,6.36-2.36,6.6-6.09,7.36-4.67.95-9.57-.08-14.24,1.16-8,.69-14.25,3.49-16.47,12.19a10.94,10.94,0,0,1-5.31,6.9c-2.66.71-4.4-.38-5.46-2.8q7.8-17.89,15.59-35.77L161.59,250C167.94,250,168,250.18,164,259.13Z"/><path class="cls-49" d="M255.92,292.65c-4.5,6.39-4.5,6.39-6.58,2.29-3.05-2.94-2.33-6.85-2.74-10.47-1.21-10.82-9.18-18-19.19-17.42-10.23.64-17.36,8.5-17.77,19.27-.17,4.53,1.53,8.77,1.58,13.24.58,2.77,4.88,3.88,3.26,8.06-7.36.17-9-6.39-12.55-10.7-3.79-12.69-1-23.94,9.3-32.05,9.47-7.43,20.57-8.47,31.47-2.72C255.06,268.67,257.42,279.92,255.92,292.65Z"/><path class="cls-50" d="M432,279.23c-10.29-29.12-20.3-58.36-37.6-84.36-2.67-4-5.11-8.17-7.65-12.26-1-2.22.26-2.49,2-2.28,11.95,10.21,18.26,24.27,25,37.83,8.65,17.36,16.27,35.23,20.59,54.28C434.79,275.11,437.55,278.62,432,279.23Z"/><path class="cls-51" d="M296.85,118.89c0-2.17,0-4.35-.05-6.52,20,.14,38.64,7.14,57.69,12l12.18,6.18c-16.65.64-31.46-7.76-47.68-9.73C311.6,119.92,304.17,120.05,296.85,118.89Z"/><path class="cls-52" d="M290.1,275c-.12-.76-.25-1.51-.38-2.26,2.61-6.4,4.84-13,7.95-19.15s5.76-3.93,7.55,1.19c-5.46,1-.22,4.9-1.94,6.9-5.63,4.74-3,14.43-10.73,17.91C291.92,277.91,292.32,275.73,290.1,275Z"/><path class="cls-53" d="M432,279.23c3-1.49,1.26-4.64,2.38-6.79q1.23,3.24,2.48,6.48c1.87,5.16,4.1,10.2,5.39,15.57a7,7,0,0,1-3.79,5.34c-3.11-4.95-2.28-11.55-6.67-16Z"/><path class="cls-54" d="M164,259.13c-2.47-2.61,5-7.82-2.37-9.15.64-2.86,1.34-6.26,5-5.9,2.77.27,1.6,3.55,2,5.49.78,3.9,1.26,7.85,1.86,11.78C168.64,259.52,167.11,257,164,259.13Z"/><path class="cls-55" d="M440.67,295.34c.16-5.8-5.52-10.26-3.77-16.42a3.17,3.17,0,0,1,1.68.41q3.21,8,6.43,16c-.59,1.79,0,4.28-2.78,4.79C439.71,299.2,439.48,297.5,440.67,295.34Z"/><path class="cls-56" d="M388.81,180.33l-2,2.28-13-14.49C380.64,170.17,386.36,173.37,388.81,180.33Z"/><path class="cls-57" d="M443,236.27c.86,2.21-.59,5.11,2.06,6.77l-.06,6.19-3.6,7.88C440.68,248.36,438.86,242.18,443,236.27Z"/><path class="cls-58" d="M515.75,234.37c15.19,1.64,26.8,6.58,37.11,14.8,3.27,2.6,4.53,6.41,2.35,10-4.64,7.63-9.66,15.06-14.89,22.3-2.17,3-5.52,5.32-6.78-.84C530.33,264.92,524.12,250.32,515.75,234.37Z"/><path class="cls-59" d="M553.09,306.21l4.71.06c-10.24,15.59-26.11,19.3-43.16,20.3-5.44.31-4.79-1.69-1.25-4.27C528,320.39,541.47,315.57,553.09,306.21Z"/><path class="cls-60" d="M89.68,342.7l-2.27,4.09c-4,3.34-8,6.42-13.4,7.18-.88-.91-1.75-1.82-2.63-2.72C74.93,342.94,82.86,344,89.68,342.7Z"/><path class="cls-61" d="M125.33,326.52l4.39,2.3c2.53,4.21-.51,6.34-3.21,8.59l-5.47.43C122.44,334.05,122.27,329.67,125.33,326.52Z"/><path class="cls-62" d="M510.64,576.66l-1.88-.29C487,524.15,480,469.16,478,413.19c-.18-5,1-6.18,5.55-4.27,3.05,1.27,6.83,3.23,9.28-.05,3-4.05-1.08-7.14-3.37-9.52-7.37-7.68-9.17-16.47-7.87-26.73,1.08-8.51.89-17.16,1.4-25.75,1.14-19.12,1.17-19.12,20.81-19.82,12.46,24.54,34,36,59.25,30.4,7.34-1.63,12.43-.85,18.15,4.21,4.88,4.32,11.47,6.7,17.3,9.95-1.53,27.28-8.38,53.75-12.35,80.66-4.3,29.14-9.32,58.2-10.5,87.71-2.74,22.91-10,46,2.92,68.26-5.65,5.34-11.18.55-16.46-.64-10.73-2.42-19.93-8.4-28.94-14.51-5.17-5.92-10.39-11.8-15.49-17.76C514.47,571.55,511.84,570.07,510.64,576.66Z"/><path class="cls-63" d="M170.44,452.43c11.34-5.64,23.21-10.36,32.57-19.33,5.44-5.23,10.27-10.75,12.53-18.29,2-6.52,9.67-8.14,14.48-3.43,1.07,1,2,2.21,3.07,3.28,10,10.15,12.72,9.79,18.64-2.6,5.23,2.36,6.27,10.78,13.8,9.75,2.17.43,3.5,2,4.83,3.56,3.85,5.92,12.2,5.9,15.93,12,11.79,24.61,33.39,27.24,57,25.6,4.62-.32,9.66-2.81,13.58,2,3.24,12.06,1.11,23.5-4,34.6-2.31,9.62-10.5,12.77-18.25,15.9-16.55,6.69-34.1,10-51.34,14.3-9,5.46-19.37,4.88-29.14,7-27.64,1-55.07.24-82.29-6-20.14-4.6-38-13-53.7-26.2-6.53-9.48-15.27-18.17-11.38-31.43a6.5,6.5,0,0,1,6.28-1.47C136.19,477.16,154.84,469.38,170.44,452.43Z"/><path class="cls-1" d="M409.2,372.15c13.1,18.25,22.86,38,27.25,60.2-2.21,1.36-4.31.25-6.39-.35-5-1.45-9.68-1.21-13,3.37s-3.05,9.81-1.78,15a6.6,6.6,0,0,0,6.45,5.23c5.09.22,8-3.18,10.65-6.9,2.09-2.93.22-8.56,6.06-8.94,2.77,6.34,1.08,13.85,5.21,19.83,7.19,23.31,15.52,46.3,20.24,70.32-.3,5.25-3.91,7.87-8.09,9.81-25.84,12-52.67,16-80.7,9.6-4-.9-8.21-1.6-10-6.11-.2-13,.55-26.18,4.19-38.52,4.68-15.87.35-30.63-2.26-45.78-5-15.61-6.85-31.71-7.38-48-.05-1.49.27-3.5,1.38-4.16,10.53-6.29,10.37-18.19,14.62-27.7,4-9,10.45-9.69,23-1.95-.69-.94-1.85-1.28-2.64-2-2.92-2.79-10.1-4.07-6.57-9.56,3.43-5.34,9.3-2.92,14,0A16.06,16.06,0,0,1,409.2,372.15Z"/><path class="cls-64" d="M459.2,567.64c8.46,27.55,10.42,55.77,7.76,84.28-1.15,12.33-10.18,19.53-25,21.68-11.73,1.7-23.11-1.32-34.6-2.83-4.27-.56-4.8-4.08-5.94-7.24-3-8.21-4-16.87-4.48-25.39-1-19-2.07-38-5.67-56.82a7.68,7.68,0,0,1,5.85-2.83c16.51-.84,32.16-5.73,48-10C449.65,567.27,454.33,565.37,459.2,567.64Z"/><path class="cls-65" d="M404.85,680.26l-15.61-4.85L355.3,658c-15.44-11.22-15.91-27.57-13-43.65,3.43-18.91,9.05-37.39,30.37-44.84,6.21-2.18,8.65-2.88,11,5.62,7,24.82,6.21,50.33,9.17,75.47C394.21,661.81,398.54,671.31,404.85,680.26Z"/><path class="cls-66" d="M448.14,454.21q-3.75-14.25-7.49-28.5c.25-9.26,3.16-18.1,4.34-27.23.3-2.34-.08-6.5,4.67-5.82,18.65,7.14,24.57,18.71,24.65,40.34.14,38.16,7,76.34,11.72,114.43,1.17,9.46-1.57,10.4-9,7.08-5.28-2.08-8.54-4.74-6.31-11.5,2-6.17-.31-12.47-2.07-18.54Q458.41,489.33,448.14,454.21Z"/><path class="cls-67" d="M119.79,502c26.4,23.69,59.18,29,92.68,31.52,13.79,1.05,27.72.37,41.59.47,4.52,2,4.59,6.78,6.69,10.3,3.84,6.38,6.15,13.42,8.75,21.11,0,.73,1.52-1.54.2-.83-.82-8.93,3.33-16.38,7.05-24,1.63-2.29,4-3.4,6.53-4.4h2.36l-9.33,27.06c-.86,1.24-.84,2.79-1.48,4.1-4.21,8.71-6.33,8.78-12.08.44-1.75-4.09-4-8-5.16-12.3-3.24-12.17-9.69-17.4-23.22-15.59-8.77,1.18-11.76,2.29-7,10.76a40.86,40.86,0,0,1,3.76,9.34c1.2,4.47,1.76,7.48-5.18,9.14-7.13,1.71-13.62,6.67-15.29,15.8-1.48,8.1-7.24,14.94-8.47,23.31-3.17.55-3.72-1.87-4.55-4-3.14-16.9-3.14-16.9-24.68-16.12-2.21-.46-4.22-1.2-5.09-3.55a5.39,5.39,0,0,1,2-3.78c2.8-2.65,9.59-2.87,5.89-9.53-2.77-5-6.41-8.17-12.61-6.25a17.2,17.2,0,0,1-3.3.52,13.12,13.12,0,0,1-6.57-1.06,6.68,6.68,0,0,1-2.41-2.37c-3.32-6.79-4.19-14.25-5.28-21.54-1.3-8.75-5.14-14.71-13-19.32-6.95-4.07-16-7.11-16.83-17.53C116.63,502.1,117.68,500.83,119.79,502Z"/><path class="cls-68" d="M409.2,372.15c-6.22-2-10.62-10-20.07-5.67,5.74,6.59,15.6,8.6,17.58,19-7-.78-9.32-6.63-13.61-9.49-8.52-5.69-13.64-3.63-15.15,6.5-.37,2.54.14,5.29-2.4,7.13-7.14,5.18-5,10.38.62,15-1,1.13-1.59,2.17-2,2.11-12.86-1.89-13.39-1.85-11.89,11.12,1.58,13.69,5.48,27.1,4.69,41.07-.84,3.3.77,7.3-2.82,9.8-2.76,4.41-1.92,9.2-1.74,14,.24,6.32-.15,12.58-5.13,17.42-1.56.63-3.69,6.36-4.43-.49-.31-11.92,3.65-23.55,2.36-35.52-3.21-10.19,1.19-20.65-.77-31.73-23.42,10.55-46.67,18.31-71,4.62-5.38-4.3-14.1-4.24-16.43-12.54,6.28-3,11.39.91,17,2.66,24.24,7.62,47.56,7.87,68.35-9.48,4.14-5,1.15-12.49,5.82-17.33,5.69-4.81,8.26-11.62,10.36-18.28,2.89-9.2,9.65-14.93,16.24-20.95,3.93-3.6,9-4.16,13.76-2.85,5.39,1.5,8.4-1.08,11.44-4.52C413.26,360,412.09,366.1,409.2,372.15Z"/><path class="cls-69" d="M365.06,543.17c30.89,9.79,60.86,7.33,90.05-6.55a29,29,0,0,0,8.78-6.76c4.84,10.8.8,17.84-9.41,22.25-25.63,11.07-51.68,15.94-79.16,6.78C367.09,556.15,363.87,551.42,365.06,543.17Z"/><path class="cls-70" d="M459.2,567.64c-22.32,6.2-44.18,14.7-67.95,13.68L387,568.27a128.56,128.56,0,0,0,50.12-3.63,61.22,61.22,0,0,0,11.63-4C456.81,556.49,459.56,559.55,459.2,567.64Z"/><path class="cls-71" d="M357.3,500.09c.95-7.34,1.82-14.69,2.87-22,.49-3.45-.76-7.74,4-9.41,6,23.43-5,45.73-4.59,68.81.08,4.57-3.55,7.06-8.09,9.57C353.49,530.94,355.39,515.51,357.3,500.09Z"/><path class="cls-72" d="M346.56,583.9c-4.09,9.47-8.78,18.72-10.8,29-2.69-16.73-3.42-33.09,8.51-47.34C348.87,571.22,349.81,577.3,346.56,583.9Z"/><path class="cls-73" d="M283.28,536.2q-2.17,2.2-4.34,4.43a22.82,22.82,0,0,0-20.32,4.56c-3.76-2.82-1.69-8-4.56-11.19l29.22-4.2C280.92,531.93,278,534.07,283.28,536.2Z"/><path class="cls-74" d="M346.56,583.9q-1.14-9.15-2.29-18.3c3.26-2.06,6.41-.16,9.38.66,2.14.59,5.81,0,5.92,3.69.08,2.43-2.4,3.21-4.09,4.61C352.18,577.28,349.5,580.75,346.56,583.9Z"/><path class="cls-75" d="M349.3,555.88c10.33-10.33,13.77,1.55,19.27,7-7.91-.56-16.17.37-22.59-6.4A2.46,2.46,0,0,1,349.3,555.88Z"/><path class="cls-76" d="M349.3,555.88l-3.32.61c-1.08-1-3.16-2.09-3.08-3,1.21-13.14,2.7-26.25,4.12-39.37l3.23.41c-.95,7.43-2.12,14.84-2.78,22.29C346.91,543.25,344,550,349.3,555.88Z"/><path class="cls-77" d="M409.91,353.68v10.88c-1.21.06-2,.35-2.5.08-15-8.3-29.94-1.19-35.18,15.13-2.37,7.38-2.63,17.12-12.12,20.8-3.66-8.36,1.22-16.07,2.48-23.85,1.69-10.42-1.52-20.08-1.88-30.1-.15-4-3.64-5.43-7.34-5.46-28.8-.27-57.6-1.32-86.22,3.74-9.57,1.7-12.9,7.29-12.11,15.66,3.46,36.72,24.81,64.94,68.35,58.42,8.1-1.21,16.07-1.46,23.38-6.53,7.67-5.32,9-4.11,9.71,6.05-22.64,19.68-48.07,20.59-75,11.13-4.83-1.69-9.64-3.46-14.47-5.2-.48-.88-1-1.75-1.45-2.62-7.22-12.52-15.63-24.37-20.11-38.38-3.16-9.89-11.44-11.11-20.11-9.67-8.18,1.35-11.64,7.32-12.35,15.19-.3,3.36-1.26,6.71-1.12,10,.73,17.92-8.94,29.29-23.22,38-11.63,7.1-24.07,12.13-37.63,13.54-45.31,4.71-78-26.64-78.64-75.33C72.27,368.12,73.43,361,74,354c3-5.08,8.18-6.19,13.4-7.18,23.63-.09,46.7-5.37,70.12-7.51,39.1-3.55,78.08-7.76,117.43-9.11,31.82-1.1,63.58-1.51,95.39-1.45,14,0,24.71,7.38,35.48,14.9C409.48,346.17,408.87,350.2,409.91,353.68Z"/><path class="cls-1" d="M116.48,505.07a35.58,35.58,0,0,0,16.37,13c10.94,4.4,14.31,12.56,15.67,23.14.94,7.33,3.57,14.44,3.44,22-5.48,8.21-14.77,8.38-22.92,10.13-23.37,5-46.2,2.06-68.32-6.71-7.29-2.89-12.31-7.32-10-16.21q.16-4.87.31-9.75c5-18.18,7.19-36.9,12.83-55.16,4.77-15.41,1.27-33.38,1.43-50.21.07-8.3.87-16.36,8-22.52,11.92,14.46,17.14,32.52,25.09,49.15a4,4,0,0,1,.83.74c4.42,7.4-.89,18.91,4.93,23.17C111.53,491.24,112.66,498.56,116.48,505.07Z"/><path class="cls-78" d="M170.44,452.43c-8.68,18.5-32.29,27.81-56.81,22.38-2.15-.48-4.29-1-6.44-1.56-8.8-2.87-3.88-10.93-6.14-16.28l-5-15.14C120.32,460,145.07,459,170.44,452.43Z"/><path class="cls-79" d="M217.69,403.35c1.52-6.83,2.11-10.92,3.39-14.78,1.37-4.11,2.1-9.49,7.76-9.77,5.15-.26,9.47,2.64,11.9,7.08a60,60,0,0,1,5.85,14.49c1.13,4.73.11,11-3.33,13.3-3.89,2.57-6.19-3.83-9.29-6.15C229.48,404.16,227.36,395,217.69,403.35Z"/><path class="cls-80" d="M101.05,457q3.08,8.13,6.14,16.27c1,11,5.84,20.3,12.6,28.77l-3.31,3.06c-4.82-3.91-5.55-12.57-9.39-14.41-14.45-6.93-6-19.27-8.71-28.73C100.51,460.94,100.73,458.93,101.05,457Z"/><path class="cls-81" d="M443,299.89l2-4.52c7,11.82,16.37,21.26,29.08,26.82,4.34,1.9,4.92,4.53,4.4,8.78A304.55,304.55,0,0,0,476,379.31a428.06,428.06,0,0,1-30.64-66.15C442.9,309,439.44,305.08,443,299.89Z"/><path class="cls-82" d="M449.66,392.66c-5,10.48-1.6,23.24-9,33a20.74,20.74,0,0,1-4-11.38c5.5-2.84,2.62-8.66,4.54-12.68,2.34-4.92-.88-13.57,8.79-13.82Z"/><path class="cls-83" d="M443,299.89q1.19,6.63,2.35,13.27c-2.71,1.75-1.75,4.72-2.37,7.16-3.05-6.49-3.7-13.5-4.49-20.49q1.1-2.24,2.17-4.49Z"/><path class="cls-84" d="M524.4,138.86l4.27.62c3.71.05,7.42.07,11.14.15,11.79.22,16.07,4.26,15.86,16.21-.16,9.18,1.85,18.61-2.29,27.49-3.07-1.41-4.72,1.08-6.85,2.43-17.08,10.81-35.83,12.56-55.36,10.23-4.06-.48-5.51-1.78-2.9-5.61,2.05-3,4.53-6,3.82-10.08,7.54-1.76,7.2-9.78,11.25-14.41C510.86,157.32,517.43,147.91,524.4,138.86Z"/><path class="cls-85" d="M132.12,621.8l2.49,9.07c5.33,15.5,8.5,31.23,4.93,47.65-10.07,5-20.5,8.57-31.95,8.79-15.23.31-22-3.34-27.21-17.9-8.6-24-11.83-49.23-13.53-74.62,4.24-4.17,9.71-4,14.67-3,13.63,2.85,27.32,2.22,41,1.23,7.37-.53,9,2.42,8.89,8.87C131.31,608.53,130.28,615.24,132.12,621.8Z"/><path class="cls-86" d="M173.32,585.93a53.94,53.94,0,0,0,5.54-.62c16.11-3.31,20.49.39,20.73,17.59-4.62,22.61-14.71,43.36-22,65.08a5.29,5.29,0,0,1-3.19,2.92l-1.66,2.26c-7.27,1.06-5.21-6.56-8.53-9.17l-22.53-64.56C149.56,588.64,162.05,588.71,173.32,585.93Z"/><path class="cls-87" d="M50.75,550.41c-.33,7,3.58,10.45,9.77,13Q106.36,582,152,563.2l.52-.35.5.38c2.33,13.56-4,19.54-21,19.91-24.6,4.89-48.48,3.35-71.27-8C50,569.84,47.09,561.46,50.75,550.41Z"/><path class="cls-88" d="M139.54,678.52c-1.26-15.92-5.46-31.54-4.93-47.65,6.6-6.64.16-15,3.54-22.85,9.86,19.85,13.06,41.92,23.54,61.07l-4.95,4.28Z"/><path class="cls-89" d="M159.23,563.16c5.06.46,10-5.06,15.33.83,9.05,10,8.39,12.83-6.1,19.48-7.44,6-16.71,8.25-25.21,12.07-1.88.84-4.41,1.09-5.85-1.44l-.15-5.83C145.39,580.61,155.33,574.53,159.23,563.16Z"/><path class="cls-90" d="M132.12,621.8c-3.84-6.54-1.58-13.76-2.28-20.66-.29-2.9.17-6.78-4.45-5.68-19.6,4.67-39-1.46-58.54-.67-1.45-3.4-2.52-6.84-1.08-11.41,19.61,8,39.85,8.76,60.27,6.07,5.27-.7,5.5,1.75,5.55,5.55C131.68,603.93,131.93,612.87,132.12,621.8Z"/><path class="cls-91" d="M159.23,563.16c-.31,14.52-11.09,19.86-22,25.11-.5-3-2.19-4.79-5.29-5.12,10.58-2.87,20.41-6.52,21-19.92Z"/><path class="cls-92" d="M137.4,594.1c6,2.86,9.3-2.83,13.8-4.56,5.7-2.19,10.64-6.45,17.26-6.07l4.86,2.46-31.61,13.5C140.64,597.36,137.25,597.16,137.4,594.1Z"/><path class="cls-93" d="M191.35,83.18c-4.94-12.19,1.09-20.58,9.41-28.54,3.43-3.28,8.31-5,10.41-9.74,22.5-12.33,45.07-24.51,69.75-32.12,8.77-2.71,17.38-6.12,27.9-6.38L290.61,27c-11.91,12.62-20.54,27.41-28.34,42.75A9.66,9.66,0,0,1,254,72.31c-19.52-3.38-37.54.39-54.2,11a5.91,5.91,0,0,1-6.33.32A7.87,7.87,0,0,0,191.35,83.18Z"/><path class="cls-94" d="M193.5,83.65c20.66-15.9,44.2-17.43,68.78-13.88q-4.2,12.42-8.39,24.85c-1.57,1.9-1.1,4.19-1,6.3.33,5.63-2.38,6.27-6.71,4.27-5.62-2.6-11.42-1.57-17.2-1C216,99.34,203.22,94.14,193.5,83.65Z"/><path class="cls-47" d="M229,104.19c10.75-5.7,10.75-5.7,21.2,0,3.38-2.32-.17-7.46,3.69-9.56q0,7.86.1,15.73c0,2.63-.35,4-3.77,3A112.81,112.81,0,0,1,229,104.19Z"/><path class="cls-95" d="M174.43,670.9c7.65-22.93,14.79-46.06,25.16-68,.37,2,.56,4.13,2.6,5.35l-22.41,62.89Z"/><path class="cls-96" d="M262.75,567.8c8.32,9.86,9.69-1.08,13.56-4.54-.27,1.83-.12,3.86-.88,5.46-4.51,9.43-2.18,13.46,8.62,11.9,7-1,9.83,3.83,12,9.4,4.29,11.14,3.83,22.74,3.28,34.28s-1.44,23-4.46,34.2c-.88-3.23.82-7.13-2.55-9.71-3-11.56.06-23.29-1-34.92-.51-5.78.85-11.88-3.2-17-1.87-6.35-6.34-8.38-12.63-8.09a106.56,106.56,0,0,1-16.57-.18c-3.58-.39-8.59.93-9.32-5.06,4.64-4,10.69-1.16,16.24-3.38Z"/><path class="cls-97" d="M249.62,583.56c9.75,4.86,20.15,1.93,30.18,1.94,7.33,0,10.81,1.7,10.22,9.24a278.8,278.8,0,0,1-3.84,49c-2.68,16.21-4.87,32.47-7.16,48.73-2,14-4.44,15.74-19.11,16.08-18.65.43-37.33-1-56,1.07-3.06.33-6-.15-8.31-2.39-1.38-8,3-14.9,4.4-22.36,11.65-30.91,22-62.3,36.44-92.15,3.06-6.33-3.11-1.06-4.44-2.29C236,583.23,242.92,583.69,249.62,583.56Z"/><path class="cls-98" d="M195.65,707.23c23-3.61,46.13-1.72,69.21-2,6.33-.06,9.22-1.48,9.9-8.47,2.76-28.4,10.38-56.2,10.73-84.91.08-6.18,2.26-11.63,4.53-17.15a10.44,10.44,0,0,1,4.37,8.64c-.45,15.15,2.15,30.45-2.1,45.41-7.72,16.22-5.27,33.84-6.56,50.87-1.14,15-4.13,19.37-19.48,18.84-17.92-.63-35.54,2.91-53.46,2.7C202,721.07,196.82,717.49,195.65,707.23Z"/><path class="cls-99" d="M299.38,322.52c-22.64,3-21.51,3.32-15.63-17.44,3.61-12.75,12.19-12.54,21.66-14.12s13.24,3.59,16.72,10.92c3.13,6.59,7.36,12.67,11.37,19.42-6.32,1.82-11.43,1.27-16.54.48-2.72-1.09-5.5-1.83-7.64-4.22s-3.9-6.62-7.76-4.92C297.25,314.53,298.82,318.9,299.38,322.52Z"/><path class="cls-100" d="M173.05,301.93H142.39c7.48-14.2,11.17-28.87,21.44-40.3C169.21,274.54,171,288.27,173.05,301.93Z"/><path class="cls-101" d="M438.44,439.72c-2.32,1.45-1.6,3.93-2.09,6-1.54,6.6-5,11.66-11.94,13.3a9.8,9.8,0,0,1-11.43-5.1,19.79,19.79,0,0,1,.7-19.26c5-8.53,12.42-9.11,22.77-2.33C438.69,434.38,438.93,437,438.44,439.72Z"/><path class="cls-102" d="M173.07,331.44c-7.17,2.67-14.76,1.8-22.15,2.55-6.45,1.62-9.43-.56-7.39-7.26s4-13.43,9.11-18.62C166.49,307,173,314.4,173.07,331.44Z"/><path class="cls-103" d="M153.29,309.13c-2.31,5.73-4.5,11.51-7,17.17-2.18,5-.85,7.48,4.61,7.69l-24.41,3.42,3.21-8.59c2-4.28,4.5-8.4,6-12.86,2.44-7.36,7.17-9.43,14.25-7.55Q152,306.93,153.29,309.13Z"/><path class="cls-104" d="M292.55,279.54c2.11-5.37,4.44-10.67,6.24-16.14,1-2.92,2.1-3.43,4.49-1.77l10.39,26.27C305.73,281.52,295.77,294.7,292.55,279.54Z"/><path class="cls-105" d="M153.29,309.13l-3.35-.72c5.07-3,10.58-1.56,16-1.67,3.36-.06,7.94,1.17,7-5,2.32,7.48,4.25,15.12,7.08,22.41,3.12,8.07-1.5,7.83-6.91,7.32-2.47-5.24-5.4-10.31-7.3-15.74C163.51,309.25,159.52,307.4,153.29,309.13Z"/><path class="cls-106" d="M299.38,322.52c-9.91-3.94-2.28-9.35-.34-13,3.35-6.37,5.91,0,8.07,1.87,3.58,3.14,6.59,6.91,9.85,10.42Z"/><path class="cls-107" d="M211.22,299.56c-7.53-8.06-7.05-17.22-1.39-25.35,5.9-8.46,14.45-12.46,25.4-8.94,10.31,3.32,15.43,9.81,14.66,20.73-.21,3-.37,6-.55,8.94-3,1.73-6.08,4.36-9.14,0-1.31-1.55-1.2-3.37-1.22-5.27,0-5.64-1.78-10.71-7.8-12.11s-9.93,1.86-13.17,9c4.69-6.83,9.18-11.55,15.61-6.55,6.6,5.13,6.06,11.44.17,17.27C226.69,302.25,218.73,298.63,211.22,299.56Z"/><path class="cls-108" d="M233.79,297.29c.14-1.1,0-2.37.48-3.28,3-5.49,2.73-11-3.24-13.16-6.34-2.25-9.15,3-10.57,8.5-.36,1.36-.56,2.77-1,4.89-5-3.93-4.85-8.26-2.47-12.3,3-5.19,7.85-7.92,14.15-7.19,5,.59,7.84,3.54,9.54,8.21,1.52,4.19.9,8.05-.5,12Z"/><path class="cls-109" d="M242.33,315c-8.75-1.57-17.08-4.17-25.06,3.87.77-11.45,8.64-11,14.5-12.31C237.17,305.38,240.91,308.18,242.33,315Z"/><path class="cls-110" d="M550.17,256.37c-2.61,5.47-3.92,11.69-9.44,12.88-5.28,1.14-5.5-4.92-7.17-8.41a79.32,79.32,0,0,1-3.42-8.26c-.93-2.66-4.53-5.57-2.06-8,3.35-3.28,6.81-.28,9.87,2C542.2,249.76,548,251.19,550.17,256.37Z"/><path class="cls-111" d="M283.41,437c25.65,6.95,50.13,5.38,72.71-10,2.82,5.19,2.4,22.42-.89,37.12-17.4,2.74-34.42,4.65-51.4-3.72C293.22,455.13,287.44,447.19,283.41,437Z"/><path class="cls-112" d="M244.49,488.78c-3.39-1.19-10.13,1.32-9.76-4,.33-4.82,6.87-2.36,10.67-2.61,3.13-.2,8.43-1.13,8.34,3.09C253.61,490.71,248,488,244.49,488.78Z"/><path class="cls-113" d="M181.94,565.59c-5.09-11.51-13.68-12.11-23.85-7-2.46-10.36-4.75-20.05-7.31-30.85a261.86,261.86,0,0,0,62.73,11.59c10.07.61,6.84,10.09,9.36,15.54,2.27,4.9-3.29,7.58-5.46,11.06-1.41,2.27-4.1-.2-5.66-1.48A108.36,108.36,0,0,1,200.18,554c-5.38-5.88-9.15-6-11.54,2.24C186.17,559.19,188.94,565.89,181.94,565.59Z"/><path class="cls-114" d="M258.62,545.19c.38-2.84-1.43-7.88,3.93-6.66s12.23-7.77,16.39,2.1l-10.08,27.81C265.13,560,261.87,552.58,258.62,545.19Z"/><path class="cls-115" d="M181.94,565.59c3.86-2,3.69-6.79,6.7-9.35,2.31,5.28,9.89-.07,12.22,6.44,1.39,3.9,9.23,6.56,2.39,11.5-5.33,3.85-11.77,5-17-.77C184.32,571.27,183.36,568.22,181.94,565.59Z"/><path class="cls-116" d="M209.8,577c-2.11,6.59-3,10-6.09,12.55C196.22,582.21,203.1,581.26,209.8,577Z"/><path class="cls-117" d="M356.48,418.5c-.38-2.54-.75-5.08-1.16-7.82-21,14-43,16-66.29,8-13.59-4.67-23-13.77-28.44-26.83-4.73-11.28-9.63-22.57-8.55-35.35.64-7.52,3.69-12.82,11.55-14.12,29.26-4.8,58.74-5.37,88.31-4.66,8.36.2,11.7,4.14,12.89,12.19a108,108,0,0,1-4.69,50.68C356,406,359.5,412.89,356.48,418.5Z"/><path class="cls-118" d="M87.32,367.43l4-2.8c16.41-.59,32.65-2.73,48.87-5.24a210.88,210.88,0,0,1,32.36-2c8.37,0,13.2,3.87,14.37,12.45.9,6.66,2.24,13.29,2.64,20,1.41,24-13.85,40-40.7,44.88-32.74,6-51.84-17.11-57.68-37.55C88.41,387.51,85.5,377.72,87.32,367.43Z"/><path class="cls-119" d="M87.32,367.43c3.67,7.18,2.81,15.27,4.59,22.83,10.5,44.72,48.82,53.26,82.71,30.41,10.61-7.16,12.38-18.62,12.06-30.9-.73-28.31-1.72-30.24-28.81-29-17.31.8-34.5,4.05-51.77,5.89-5,.53-10.41,2.44-14.8-2,16.47-6.9,34.31-5.32,51.43-8.16,10.32-1.72,20.9-1.8,31.32-3,7.7-.88,12.29,2.42,14.19,9.56,3,11.27,5,22.78,4,34.45-1.07,12.36-5.46,22.64-17,29.78-41.13,25.37-84.27,5.05-89.62-43.2C85,379,78.32,372,87.32,367.43Z"/><path class="cls-120" d="M235.1,691.75c-6.84-.77-12.46-3.73-12.31-11.4.16-8.23,6.37-11.09,13.68-11.51,7.74-.45,12.3,4.26,12.36,11.19C248.9,688.06,242.66,691.08,235.1,691.75Z"/><path class="cls-121" d="M426.37,437c3.65-.11,6,1.4,4.83,5.23-.81,2.56-.37,7-3.89,7.07-4.8,0-4.56-5.09-5.58-8.34C420.42,436.83,424,437.35,426.37,437Z"/><path class="cls-122" d="M327.76,342.63c.74,0,1.49,0,2.24,0,30.68-.89,31.31-.63,29.68,29.88C357.62,411.08,341.11,423,298.56,415c-31.38-5.88-36.62-28.36-41.95-56.8-1.1-5.84,2.36-10.62,9.71-11,10.44-.6,20.92-1.25,31.24-2.83C307.62,342.75,317.67,342.74,327.76,342.63Z"/><path class="cls-123" d="M235.5,684.66c-3.94,0-5.91-2.06-5.89-5.4s2.2-5.22,5.57-5.57c3.55-.36,5.92,1.41,6.08,4.73C241.44,682.19,238.92,684.27,235.5,684.66Z"/></g>
    </g>
</svg>
