<svg xmlns="http://www.w3.org/2000/svg" viewBox="0 0 910.47 401.55"><defs><style>.cls-1{fill:#2ca0d8;}</style></defs><g id="图层_2" data-name="图层 2"><g id="图层_1-2" data-name="图层 1"><path class="cls-1" d="M531.27,17.34c0,29.8-.1,59.7,0,89.5q.15,27.75.9,55.5c.4,12.5,1.2,25,1.9,37.4.4,6.5.8,12.9,1.6,19.4.7,6.1,1.9,12.2,2.9,18.3.5,3.3,1.1,6.7,1.8,10a15.78,15.78,0,0,0,1.8,4.7c.4.6,1.8.8,2.7,1,.6.1,1.3-.4,1.9-.4,9.1-.3,18.3-.9,27.4-.8,7.1.1,14.2.8,21.2,1.6s14.2,1.8,21.3,3.1c6.3,1.1,12.6,2.7,18.9,4.1,4.9,1.1,9.9,2.1,14.8,3.5,5.9,1.7,11.6,3.8,17.4,5.8,3.4,1.2,6.9,2.4,10.2,3.8,4.2,1.8,8.3,3.7,12.4,5.7a67.87,67.87,0,0,1,7.5,4.1c8,4.8,15.6,10.1,19.9,18.7a26.61,26.61,0,0,1,2.2,15.5c-1.5,11.4-7.2,20.7-15,28.8a87.33,87.33,0,0,1-20.2,15.6c-5.7,3.2-11.3,6.5-17.1,9.2-6,2.8-12.3,4.9-18.5,7.2-3.8,1.4-7.7,2.8-11.6,3.9-4.9,1.4-9.8,2.7-14.7,4-3.8,1-7.7,2.1-11.5,3-3,.7-6.1,1.3-9.2,1.9-5.4,1-10.7,2.1-16.1,3-5.8.9-11.7,1.5-17.5,2.2-6.8.8-13.6,1.7-20.4,2.4-3,.3-6,.5-8.9.8-7.6.5-15.2,1.1-22.8,1.6-1.6.1-3.1,0-4.7.1a1.73,1.73,0,0,1-2.1-1.8,14.92,14.92,0,0,1-.2-2.1c-.3-5.6-.7-11.2-1-16.8-.3-4.8-.4-9.6-.8-14.5-.9-12.4-1.9-24.7-2.9-37.1-.6-7.6-1.1-15.1-1.7-22.7-.4-5.3-.9-10.7-1.4-16-.7-7.8-1.4-15.6-2.2-23.4-.2-2.3-.6-4.5-.9-6.8-.3-2.5-.4-4.9-.7-7.4-.3-2.7-.8-5.4-1.2-8.1,0-.2-.1-.4-.1-.6-.6-5.6-1.1-11.2-1.8-16.7-.8-6.1-1.7-12.2-2.5-18.2-.9-6.3-1.6-12.6-2.6-18.8-.9-5.6-1.9-11.3-2.9-16.9-.7-4-1.2-8-1.8-12l-3-18-2.1-12.9c-.9-5-1.9-10.1-2.9-15.1-.6-3.2-1.2-6.4-1.7-9.6-1-5.3-2-10.6-2.9-16-.8-4.2-1.4-8.4-2.3-12.5-.9-4.5-2-9-2.9-13.5-.7-3.3-1.2-6.5-1.8-9.8L462.67,41c-.8-4.2-1.6-8.3-2.5-12.5-.3-1.7.5-2.5,2-3.1,8.7-3.3,17.4-6.6,26.2-9.8,9.4-3.5,18.8-6.8,28.3-10.3,4.4-1.6,8.8-3.3,13.2-5,1.8-.7,2.3-.4,2.2,1.7,0,4.1-.2,8.2-.2,12.4v2.9Zm47.2,277.6c-3.7-.2-4.1.3-4,2.9,0,.3.1.7.1,1,.9,6.6,1.8,13.1,2.7,19.7l1.2,8.1c.9,6.1,1.8,12.3,2.6,18.4.7,5.1,1.3,10.2,2,15.3.3,1.9,1.7,2.4,3.2,1.3,3.5-2.5,6.9-5.1,10.4-7.6,5.7-4.1,11.3-8.3,17-12.4,5.8-4.3,11.6-8.5,17.4-12.8,3.2-2.4,6.5-4.8,9.7-7.3,1.1-.8,1.1-1.6-.2-2.1-4.7-2.1-9.3-4.3-14-6.4s-9.4-3.9-14-5.8c-3.1-1.3-6.2-2.7-9.4-3.9-5.6-2.1-11.2-4.1-16.9-6A81.2,81.2,0,0,0,578.47,294.94Z"/><path class="cls-1" d="M70.87,69.64c0,11.7-.2,23.4,0,35.1.5,23.9,1,47.9,1.8,71.8.3,10.4,1.1,20.9,1.8,31.3.4,5.5,1,10.9,1.6,16.3a111.59,111.59,0,0,0,1.6,11.4c1,5,2.2,9.9,3.5,14.8.7,2.6,1.6,3,4.3,2.4.2,0,.4-.1.6-.1,10-.3,20-.7,29.9-.8a114.79,114.79,0,0,1,14.4.9c6.2.7,12.3,1.8,18.5,2.8,7,1.1,13.9,2.3,20.8,3.6,4,.8,8,1.9,11.9,2.9q6.6,1.65,13.2,3.6c3.9,1.1,7.9,2.4,11.7,3.7,4.1,1.4,8.2,2.9,12.2,4.6,3.5,1.5,7,3.3,10.4,4.9a100.51,100.51,0,0,1,18.2,11.3c3.9,3.1,7.5,6.6,9.8,11a27.44,27.44,0,0,1,2.7,16.2,45.94,45.94,0,0,1-6.9,18.9,73.26,73.26,0,0,1-14.1,15.8,124.36,124.36,0,0,1-27.8,17.6c-7,3.3-14.4,6-21.7,8.8-4.2,1.6-8.4,3-12.7,4.3s-8.8,2.4-13.2,3.5-8.6,2.3-12.9,3.2c-3.5.8-7,1.2-10.6,1.9-4.1.8-8.1,1.7-12.3,2.3-6,.9-12,1.8-18,2.5-7.2.9-14.5,1.8-21.8,2.6-3.6.4-7.1.6-10.7.8-8.1.5-16.3,1.1-24.4,1.6-3,.2-3,0-3.2-3-.5-8.5-1.1-16.9-1.6-25.4-.5-7.3-1-14.6-1.5-21.8-.7-9-1.4-18.1-2.1-27.1-.5-5.9-.8-11.9-1.3-17.8-.8-9.2-1.7-18.3-2.6-27.5-.4-4.4-.8-8.7-1.3-13.1-.7-5.9-1.5-11.7-2.2-17.6s-1.1-11.7-1.8-17.5c-.6-5.4-1.5-10.9-2.2-16.3-.9-6.7-1.8-13.3-2.8-20-.9-5.7-2-11.4-2.9-17.1-.7-4.4-1.2-8.8-1.8-13.1-.7-4.7-1.6-9.4-2.4-14.1-1.1-6.8-2.3-13.5-3.4-20.3-.8-5.1-1.6-10.1-2.5-15.2-1.4-7.2-2.9-14.4-4.3-21.7-.8-4.4-1.5-8.8-2.3-13.1s-1.8-8.6-2.7-13c-.7-3.4-1.3-6.9-2-10.3-.9-4.5-1.8-8.9-2.7-13.4-1-4.9-2.1-9.8-3-14.8-.4-1.9,1-2.5,2.4-3,5.4-2,10.7-4,16.1-6,5-1.9,10-3.7,15-5.5,3.8-1.4,7.7-2.9,11.5-4.4,5.1-1.9,10.1-3.7,15.2-5.6,2.1-.8,4.1-1.6,6.2-2.3a17,17,0,0,1,3.2-1c1.9-.4,2.4.1,2.3,2-.2,5.6-.3,11.2-.5,16.9-.1,4.3-.1,8.5-.1,12.8v37.5C71.07,69.64,71,69.64,70.87,69.64Zm46.8,225.3c-3.4-.1-3.9.5-3.6,3,.3,2.1.7,4.2,1,6.4.4,2.4.6,4.9,1,7.3.7,4.4,1.4,8.7,2.1,13.1.8,5.5,1.5,11.1,2.2,16.7.9,6.3,1.9,12.6,2.8,19,.3,1.8,1.7,2.4,3.2,1.4.5-.3.9-.8,1.4-1.1,7.1-5.2,14.1-10.4,21.2-15.6,5.4-4,10.8-8.1,16.3-12.1,4.9-3.6,9.8-7,14.7-10.7,2-1.5,1.8-2.3-.3-3.3l-2.7-1.2c-5.3-2.2-10.5-4.4-15.8-6.6-6-2.6-12-5.3-18.1-7.7-5.9-2.3-12-4.4-18-6.4A44.54,44.54,0,0,0,117.67,294.94Z"/><path class="cls-1" d="M803.57,45.34c3.4.4,6.9.7,10.3,1.1a3.18,3.18,0,0,1,2.8,3.3c.7,8.7,1.3,17.3,1.9,26l1.8,28.8c.5,7.4,1,14.8,1.6,22.2.8,9.7,1.6,19.4,2.3,29,.3,3.6.5,7.3.7,10.9.5,6.9,1.2,13.8,1.7,20.7.7,8.5,1.2,17,1.9,25.4.5,7.3,1,14.6,1.6,21.9.5,7.5,1,14.9,1.6,22.4.8,9.6,1.6,19.1,2.4,28.7.9,11.8,1.7,23.6,2.7,35.4.8,10.5,1.7,21,2.6,31.5.2,2.2-.2,2.7-2.4,3.1a84.34,84.34,0,0,1-27,.1c-2-.4-2.7-1.3-2.8-3.2-.8-10.3-1.7-20.6-2.6-30.9-.3-3-.6-6-.8-9-.6-7.1-1.1-14.2-1.8-21.2-.8-7.8-2-15.5-2.8-23.3-.8-7.1-1.4-14.3-2.2-21.4-1-9.2-2.1-18.4-3.2-27.7-.5-4.3-1-8.5-1.6-12.8-.9-6.1-1.9-12.1-2.7-18.2-.7-4.9-1.2-9.8-1.9-14.7-.9-6.6-2-13.2-2.9-19.8-.8-5.6-1.4-11.2-2.3-16.8-.8-5.2-1.9-10.4-2.7-15.6-.7-4.2-1.2-8.5-1.9-12.8-.9-5.7-2-11.3-2.9-17-.8-4.6-1.4-9.3-2.2-13.9s-1.9-9.4-2.8-14.1c-.8-4.2-1.5-8.5-2.2-12.7a1.66,1.66,0,0,1,1.6-2.2,25.58,25.58,0,0,1,2.7-.5c8.2-.8,16.5-1.5,24.7-2.2,2.3-.2,4.6,0,6.9,0A.9.9,0,0,1,803.57,45.34Z"/><path class="cls-1" d="M344.37,45.44c2.3.2,5.7.5,9.1,1,2,.3,2.8,1.8,3,3.6.3,2.8.6,5.6.7,8.4.6,10.4,1.2,20.7,1.8,31.1.5,7.8,1.1,15.6,1.7,23.4.7,9.4,1.6,18.7,2.3,28.1,1.1,13.7,2.1,27.4,3.1,41,1,13,1.9,25.9,2.8,38.9.5,7.5,1,15.1,1.7,22.6.9,10.5,2,20.9,2.8,31.4.8,10.2,1.4,20.3,2.2,30.5.7,9.6,1.6,19.3,2.3,28.9.4,5.3.6,10.6.9,15.9a26.14,26.14,0,0,0,.6,2.7c.4,1.7-.2,2.5-2,2.8a77.77,77.77,0,0,1-23.1.7,27.45,27.45,0,0,1-5-.8c-.7-.2-1.6-1.1-1.6-1.7-.7-6.6-1.2-13.3-1.9-19.9-.7-7.5-1.5-14.9-2.3-22.4-.3-3.1-.5-6.3-.8-9.4-.6-7.3-1.1-14.5-1.9-21.8s-1.9-14.3-2.8-21.5-1.3-14.2-2.2-21.2c-.9-7.3-2-14.6-2.9-21.9-.7-5.6-1.2-11.3-1.9-16.9-.8-6.2-1.9-12.3-2.8-18.5,0-.3-.1-.5-.1-.8-.7-5.7-1.3-11.4-2.1-17.1-1-7.4-2.1-14.7-3.3-22.1-.7-4.8-1.6-9.5-2.3-14.2-.8-5.5-1.5-10.9-2.5-16.4-1.4-8-2.9-16-4.3-24.1-.8-4.8-1.4-9.7-2.3-14.5-.8-4.3-1.7-8.5-2.6-12.8-.5-2.6-1.1-5.1-1.4-7.7a2.28,2.28,0,0,1,1-1.9,12.93,12.93,0,0,1,4-.8c8-.8,16.1-1.5,24.1-2.2C338.77,45.64,341.07,45.64,344.37,45.44Z"/><path class="cls-1" d="M910.07,304.94c0,17.3.1,34.5,0,51.8,0,6.5-.4,12.9-.5,19.4a2,2,0,0,1-2,2.2c-1,.1-2.1.1-3.1.1-7.1.3-14.2.6-21.3,1-2.7.1-5.3.4-8,.6-1.7.2-2.4-.5-2.6-2.3-.5-6.2-1-12.3-1.7-18.5-.9-7.9-2-15.8-2.8-23.7-.9-8.4-1.4-16.9-2.2-25.4-.5-6.3-1.1-12.6-1.7-18.9-.5-5.5-1-10.9-1.5-16.4-.6-6.4-1.2-12.7-1.7-19.1-1-12.9-2-25.9-2.9-38.8-.2-3.6,0-3.5,3.7-3.8,7.8-.6,15.6-1.7,23.4-2,6.2-.2,12.4.2,18.6.6,3.1.2,3.7,3,4,5.5.4,3.3.7,6.6.9,10,.4,6.9.8,13.8.9,20.7.4,19,.6,37.9.9,56.9A.76.76,0,0,1,910.07,304.94Z"/><path class="cls-1" d="M323,364.24c.1,5.8,0,4.9-5.7,5.9-6.7,1.2-13.5,2.1-20.2,3-2.9.4-5.8.7-8.7,1-1.5.2-2-.8-2.2-2-.9-4.7-1.7-9.5-2.6-14.2-.7-3.5-1.5-7-2.2-10.5-.9-4.3-1.7-8.6-2.5-12.9s-1.7-8.7-2.6-13.1-1.6-9-2.5-13.4c-.7-3.6-1.5-7.1-2.2-10.7-.8-4.1-1.7-8.2-2.4-12.3-1.3-7.1-2.4-14.2-3.7-21.2-.9-4.6-2-9.1-2.8-13.7-.7-4-1.2-8.1-1.9-12.1-.7-4.3-1.5-8.6-2.2-12.9-.7-4.1-1.4-8.1-2-12.2-.4-2.4,0-2.8,2.4-3.3,5.6-1.1,11.2-2,16.7-3.3,6.4-1.6,13-1.9,19.5-2.4a46.77,46.77,0,0,1,6.5.1c2.4.2,4.1,2,4.5,4.7,1.2,7.8,2.5,15.6,3.6,23.4.9,6.1,1.7,12.2,2.4,18.4.9,7.9,1.5,15.8,2.4,23.7,1,10,2.2,20,3.2,30,.8,8.1,1.3,16.2,1.9,24.2.6,7.5,1,14.9,1.7,22.4C321.77,355.44,322.47,359.84,323,364.24Z"/><path class="cls-1" d="M717,213.64c-.1-3.3-.2-3.4,3-4,5.1-1.1,10.3-1.9,15.3-3.2,6.2-1.6,12.6-1.6,18.9-2.5a18,18,0,0,1,9.5,1,4.63,4.63,0,0,1,2.3,2.8,204.4,204.4,0,0,1,5.3,33c.6,6.9,1.6,13.8,2.3,20.7.9,8.4,1.6,16.7,2.4,25.1,1,9.9,2.2,19.8,3.1,29.6.8,8.5,1.2,17.1,1.9,25.6.5,7.3,1.1,14.7,1.7,22a5.49,5.49,0,0,0,.5,1.7c.5,2.1-.5,3.5-2.7,3.8l-18,2.4c-4.4.6-8.7,1.4-13.1,2.2-2,.3-2.6-.2-3-2.1-.8-4.1-1.9-8.3-2.7-12.4-.5-2.4-.7-4.9-1.2-7.3-1-5.3-2.2-10.6-3.2-15.9-1.5-7.6-2.8-15.3-4.3-22.9-.9-4.6-2-9.3-2.9-13.9-.7-3.3-1.2-6.5-1.7-9.8-.8-4.2-1.5-8.3-2.3-12.5-1-5.3-1.9-10.5-2.9-15.8-.9-4.8-2-9.7-2.9-14.5-.6-2.9-1.1-5.9-1.6-8.8-1.2-7.3-2.4-14.7-3.5-22C717.07,215.34,717.07,214.54,717,213.64Z"/><path class="cls-1" d="M449.57,306.64V362c0,4.8-.4,9.5-.5,14.3a1.82,1.82,0,0,1-1.7,2c-.5.1-.9.1-1.4.2-7.2.3-14.5.7-21.7,1-3,.2-6,.5-9,.6-2.6.1-3-.3-3.2-2.8-.3-3.6-.5-7.3-.9-11-.5-5.8-1.1-11.7-1.7-17.5-.7-7.1-1.6-14.2-2.3-21.4-1.2-12-2.4-23.9-3.5-35.9-.9-9.4-1.6-18.9-2.4-28.3-.6-6.6-1.1-13.2-1.6-19.9-.6-8.4-1.2-16.8-1.8-25.1v-1.8c.2-2.7.6-3,3.4-3.2,8.1-.7,16.1-1.6,24.2-2.1a121.68,121.68,0,0,1,13.5.3,19.86,19.86,0,0,1,5.9,1.1,3.93,3.93,0,0,1,2.2,2.5,67.13,67.13,0,0,1,1.7,11.8c.6,26.6,1,53.2,1.5,79.8Z"/><path class="cls-1" d="M904.77,159.34v28.8c0,2-.6,2.6-2.6,2.3-5.9-.6-11.8-1.3-17.7-1.9-1.6-.2-1.7-1.2-1.7-2.4-.2-6.3-.3-12.6-.5-18.8-.3-12.9-.5-25.9-.8-38.8-.1-2.9.1-3.1,2.9-2.9,5.7.3,11.5.6,17.2,1,3.1.2,3.7.7,3.7,3.8.1,9.6,0,19.2,0,28.8A.75.75,0,0,1,904.77,159.34Z"/><path class="cls-1" d="M421.27,150v-21.8c0-2.5.2-2.8,2.7-2.6,5.7.3,11.4.4,17,1.1,3.7.4,4.4.6,4.4,4.5-.3,18-.4,36-.9,53.9-.2,6.5.4,5.5-5.4,5-4.9-.4-9.9-1-14.8-1.6-1.3-.1-1.5-1-1.6-2.1-.2-5.7-.6-11.5-.7-17.2-.1-6.4,0-12.8,0-19.2Z"/><path class="cls-1" d="M283.57,119.74h8.8c2.5,0,3,.4,3.3,2.9.6,5.6,1.1,11.2,1.6,16.8.9,10.2,1.7,20.3,2.5,30.5.2,2.7.2,5.5.4,8.2a6.28,6.28,0,0,0,.3,1.9c.6,2.5.2,3-2.4,3-5.8-.1-11.6-.2-17.4-.2a1.64,1.64,0,0,1-1.9-1.7c-.4-2.6-.9-5.3-1.2-7.9-.8-6.7-1.5-13.5-2.2-20.3l-1.5-14.4c-.5-5.1-1.1-10.2-1.6-15.3,0-.3-.1-.7-.1-1-.4-1.8-.1-2.3,1.9-2.4,3,0,6.2,0,9.5-.1Z"/><path class="cls-1" d="M743.67,119.74h9c2.6,0,3.2.7,3.4,3.2.9,11.5,1.9,22.9,2.8,34.4.6,7.7,1.3,15.4,1.9,23.1.2,2.2-.3,2.7-2.5,2.6-3.7-.2-7.3-.6-11-.7a22.92,22.92,0,0,0-5.2.5c-2.4.4-3.2-.1-3.5-2.5-.8-5.8-1.5-11.7-2.2-17.5-.6-4.9-.8-9.8-1.6-14.6a125.59,125.59,0,0,1-1.6-14.9c-.2-3.7-.9-7.3-1.4-11-.2-1.8.6-2.5,2.3-2.5,3.4.1,6.5,0,9.6-.1Z"/><path class="cls-1" d="M406.57,126.54h2c1.7-.1,2.5.7,2.6,2.4.6,12.5,1.1,25.1,1.8,37.6.3,6.6,1,13.2,1.4,19.7.2,3.1-.1,3.3-3.3,3.4-4,.2-8,.5-11.9.7-2.8.2-3.4-.2-3.7-2.9-.8-7.5-1.5-15.1-2.3-22.6-.5-5.5-1.1-10.9-1.6-16.4-.5-4.7-1-9.3-1.6-14-.1-1.2-.7-2.3-.5-3.4.1-.8,1-2.1,1.7-2.2,5.2-1,10.4-1.8,15.6-2.6C406.57,126.34,406.57,126.44,406.57,126.54Z"/><path class="cls-1" d="M730.47,181.14c.1,3.7-.1,3.8-3.9,4.2-4,.4-8,1.1-12,1.7-1.6.2-2.1-.3-2.4-1.9-1.3-6.7-2.9-13.4-4.3-20.1-.8-3.8-1.4-7.7-2.2-11.5-.9-4.2-2-8.3-2.8-12.5s-1.6-8.6-2.3-12.9c-.1-.5.7-1.4,1.2-1.6,5.5-1.5,10.9-2.8,16.4-4.2,2.6-.6,3.5.2,3.9,2.9.9,6.1,2,12.2,3,18.2.6,4.1,1.1,8.1,1.7,12.2,1,7,2.1,13.9,3.1,20.9C730.07,178.14,730.27,179.64,730.47,181.14Z"/><path class="cls-1" d="M253.57,187.24c-.5-.5-1.5-1.2-1.8-2.1-.9-3.5-1.6-7-2.3-10.5-1.1-5.2-2.1-10.4-3.1-15.6-.7-3.6-1.4-7.3-2.1-10.9-.8-3.8-1.7-7.6-2.5-11.4-.6-2.7-1.2-5.5-1.6-8.2a2.51,2.51,0,0,1,1.3-2c5.3-1.5,10.5-2.8,15.8-4.1,3.4-.8,4.4-.1,4.9,4,.7,4.9,1.1,9.8,1.8,14.7.8,5.4,1.9,10.8,2.7,16.2.8,5.6,1.5,11.1,2.3,16.7.3,2.3.9,4.5,1.3,6.7.5,2.6,0,3.8-2.4,4.2C263.37,185.84,258.77,186.44,253.57,187.24Z"/><path class="cls-1" d="M874.17,179v8.4c0,1.4-.5,2.2-2,2.3-4.5.2-9,.5-13.5.8-1.8.1-2.7-.4-2.8-2.3-.4-4.5-.9-9-1.4-13.4-.9-7.6-1.9-15.1-2.9-22.7-.1-.6,0-1.3-.1-2l-1.5-13.8a25.3,25.3,0,0,1-.1-5.5,2.69,2.69,0,0,1,1.5-1.9c5.8-.9,11.6-1.7,17.4-2.5,1.7-.2,2.3.6,2.4,2.2.6,9.8,1.2,19.6,1.8,29.5C873.37,165.44,873.77,172.64,874.17,179Z"/></g></g></svg>